<svg width="50" height="50" xmlns="http://www.w3.org/2000/svg">
 <!-- Created with Method Draw - http://github.com/duopixel/Method-Draw/ -->
 <g>
  <title>Layer 1</title>
  <path id="svg_1" d="m4.64648,49.99524c0.30303,-15.05049 3.43434,-15.85857 3.43432,-15.95487c0.00002,0.0963 1.31315,-1.9239 2.72729,0.29832c1.41414,2.22222 0.80808,7.47474 0.80806,7.37844c0.00002,0.0963 0.20204,-13.13601 0.30305,-16.67136c0.10101,-3.53535 2.0202,-2.22222 2.02018,-2.31852" opacity="0.5" stroke-width="1.5" stroke="#000" fill="#fff"/>
 </g>
 <g>
  <title>background</title>
  <rect fill="#fff" id="canvas_background" height="52" width="52" y="-1" x="-1"/>
  <g display="none" overflow="visible" y="0" x="0" height="100%" width="100%" id="canvasGrid">
   <rect fill="url(#gridpattern)" stroke-width="0" y="0" x="0" height="100%" width="100%"/>
  </g>
  <path id="svg_3" d="m3.03625,50.10291c0.18127,-10.03021 0.18127,-8.45922 0.18127,-10.15106c0,-1.69184 1.14804,-2.83988 1.13293,-2.85215c0.01511,0.01227 1.94864,-1.4983 2.55287,-0.77323c0.60423,0.72508 0.36254,5.43807 0.34744,5.42579c0.0151,0.01228 0.0151,-7.17805 0,-7.19033c0.0151,0.01228 -0.16617,-2.76718 0.98187,-2.94845c1.14803,-0.18127 3.85089,-1.3275 4.04834,1.32931c0.19745,2.65681 -0.091,2.89923 -0.02878,5.47092" opacity="0.5" fill-opacity="null" stroke-opacity="null" stroke-width="1.5" stroke="#000" fill="#fff"/>
  <path id="svg_4" d="m12.35119,37.94363c0.05953,-9.58333 4.70238,-9.04761 4.67261,-9.07459c0.02977,0.02698 -0.08927,-0.21112 0.80358,0.68174c0.89286,0.89286 0,5.59524 0.02976,8.00873" opacity="0.5" fill-opacity="null" stroke-opacity="null" stroke-width="1.5" stroke="#000" fill="#fff"/>
  <path d="m18.24405,33.00316c0,-0.05952 -0.05952,-0.05952 -0.05952,-0.23809c0,-0.29762 0.03437,-0.59666 0,-1.0119c-0.02986,-0.36084 -0.11905,-0.77381 -0.11905,-1.01191c0,-0.23809 0.04103,-0.42144 0,-0.59524c-0.03058,-0.12954 -0.05952,-0.29762 -0.05952,-0.53571c0,-0.17857 0,-0.47619 0,-0.65476c0,-0.29762 0,-0.59524 0,-0.83333c0,-0.2381 -0.02909,-0.5375 0,-0.77381c0.02999,-0.24359 0.11905,-0.59524 0.11905,-0.83333c0,-0.23809 0.03771,-0.47753 0.05952,-0.65476c0.02999,-0.24358 0.11795,-0.45905 0.17857,-0.77381c0.03377,-0.17535 0.02139,-0.36022 0.05952,-0.59524c0.03015,-0.1858 0.11905,-0.41667 0.11905,-0.65476c0,-0.17857 0.06811,-0.2937 0.11905,-0.41667c0.07203,-0.1739 0.11905,-0.35714 0.17857,-0.47619l0,-0.11905" id="svg_5" fill-opacity="null" stroke-opacity="null" stroke-width="null" stroke="null" fill="none"/>
  <path d="m18.66072,30.14602c-0.05952,0 -0.06983,-0.05076 -0.11905,-0.11905c-0.15565,-0.21595 -0.12784,-0.47282 -0.23809,-0.77381c-0.12949,-0.35349 -0.15295,-0.60316 -0.2381,-0.83333c-0.09236,-0.24966 -0.14858,-0.4707 -0.17857,-0.71429c-0.03636,-0.29539 -0.05952,-0.59524 -0.05952,-0.89286c0,-0.23809 -0.02954,-0.35165 -0.05952,-0.59524c-0.02182,-0.17723 -0.0547,-0.36351 0,-0.59524c0.03058,-0.12954 0.05071,-0.25169 0.11905,-0.41667c0.03221,-0.07777 0.08683,-0.1008 0.11905,-0.17857c0.02278,-0.05499 0.13037,-0.17152 0.23809,-0.35714c0.13361,-0.23024 0.21625,-0.48798 0.41667,-0.83333c0.21544,-0.37125 0.44935,-0.63133 0.65476,-0.95238c0.14347,-0.22423 0.35447,-0.38983 0.41667,-0.59524c0.01725,-0.05697 0.05546,-0.06389 0.11905,-0.11905c0.22484,-0.195 0.53249,-0.30646 1.0119,-0.47619c0.53232,-0.18846 0.94554,-0.37317 1.48809,-0.59524c0.47067,-0.19265 0.71949,-0.22583 1.01191,-0.35714c0.24284,-0.10905 0.36181,-0.16606 0.53571,-0.23809c0.12297,-0.05094 0.2381,-0.17857 0.41667,-0.17857l0,-0.05952" id="svg_6" fill-opacity="null" stroke-opacity="null" stroke-width="null" stroke="null" fill="none"/>
  <path d="m29.91071,16.57459c0,0 0.0556,0.00859 0.17857,0.05952c0.3478,0.14407 0.7475,0.30224 1.07143,0.53571c0.20487,0.14766 0.35714,0.29762 0.41667,0.35714l0,0.05952" id="svg_7" fill-opacity="null" stroke-opacity="null" stroke-width="null" stroke="null" fill="none"/>
  <path d="m15.20834,19.96745c0.05952,0 0.24786,-0.45592 0.77381,-1.07143c0.65622,-0.76797 1.50928,-1.54576 2.55952,-2.20238c1.15203,-0.72026 2.41002,-1.22543 3.57143,-1.54762c1.22617,-0.34015 2.13693,-0.53558 3.03571,-0.59524c0.65332,-0.04336 1.30952,0.11905 1.96428,0.2381l0.29762,0.05952" id="svg_8" stroke-opacity="null" stroke-width="null" stroke="null" fill="none"/>
  <path d="m17.94643,31.39602c0,-0.05952 0.09044,-0.12135 0.11905,-0.29762c0.03015,-0.1858 0.0889,-0.34991 0.11905,-0.53571c0.03814,-0.23502 0.05952,-0.47619 0.05952,-0.65476c0,-0.11905 -0.02735,-0.24128 0,-0.35714c0.03058,-0.12954 0.04045,-0.29916 0.05952,-0.41667c0.03015,-0.1858 0.05952,-0.29762 0.05952,-0.41667c0,-0.17857 0,-0.35714 0,-0.47619c0,-0.2381 0.08906,-0.4707 0.11905,-0.71429c0.02909,-0.23631 0.02962,-0.47177 0.05952,-0.77381c0.0176,-0.1777 0,-0.41667 0,-0.59524c0,-0.17857 -0.01907,-0.4182 0,-0.53571c0.03015,-0.1858 0.0889,-0.40944 0.11905,-0.59524c0.0286,-0.17627 -0.03814,-0.41974 0,-0.65476c0.03015,-0.1858 0.05952,-0.47619 0.05952,-0.65476c0,-0.23809 0,-0.41667 0,-0.59524c0,-0.29762 0.05952,-0.47619 0.05952,-0.65476c0,-0.17857 0,-0.41667 0,-0.65476c0,-0.23809 0,-0.47619 0,-0.71428c0,-0.29762 0,-0.59524 0,-0.95238c0,-0.2381 0.05952,-0.47619 0.05952,-0.65476c0,-0.23809 -0.04103,-0.36192 0,-0.53571c0.03058,-0.12954 0.04498,-0.29851 0.05952,-0.41667c0.02999,-0.24358 0.0889,-0.40944 0.11905,-0.59524c0.0286,-0.17627 0.02954,-0.4707 0.05952,-0.71428c0.02909,-0.23631 0.05952,-0.41667 0.05952,-0.65476c0,-0.17857 0.0889,-0.29039 0.11905,-0.47619c0.0286,-0.17626 0.02937,-0.34991 0.05952,-0.53571c0.01907,-0.11751 0.0185,-0.36192 0.05952,-0.53571c0.03058,-0.12954 0.13622,-0.3493 0.23809,-0.59524c0.07203,-0.1739 0.1554,-0.42615 0.2381,-0.59524c0.09429,-0.19279 0.27032,-0.39897 0.35714,-0.59524c0.09929,-0.22444 0.19866,-0.43512 0.29762,-0.59524c0.13277,-0.21482 0.29762,-0.29762 0.41667,-0.47619c0.11905,-0.17857 0.29762,-0.35714 0.47619,-0.53571c0.23809,-0.2381 0.39965,-0.36974 0.53571,-0.53571c0.10674,-0.1302 0.19601,-0.196 0.2381,-0.2381c0.04209,-0.04209 0.07059,-0.07782 0.17857,0c0.06829,0.04922 0.18964,0.04122 0.29762,0.11905c0.13658,0.09844 0.26024,0.14197 0.47619,0.29762c0.13658,0.09844 0.26491,0.20539 0.41667,0.35714c0.15176,0.15176 0.29762,0.41667 0.41667,0.59524c0.11905,0.17857 0.26285,0.34292 0.35714,0.53571c0.0827,0.16909 0.21902,0.33161 0.35714,0.59524c0.08736,0.16673 0.16606,0.42133 0.2381,0.59524c0.10187,0.24594 0.1517,0.4625 0.23809,0.71429c0.0985,0.28708 0.08622,0.52415 0.17857,0.77381c0.08515,0.23018 0.06433,0.59432 0.11905,0.89286c0.06528,0.35614 0.08914,0.70987 0.11905,1.0119c0.02346,0.23694 0.03007,0.53693 0.05952,0.89286c0.02986,0.36084 0.08921,0.65159 0.11905,1.07143c0.02532,0.35625 0,0.71429 0,1.07143c0,0.29762 0.05952,0.65476 0.05952,1.01191c0,0.35714 0,0.59524 0,0.95238c0,0.29762 0.03519,0.59698 0,0.95238c-0.02991,0.30204 -0.08918,0.65107 -0.11905,1.01191c-0.02946,0.35592 -0.02962,0.65034 -0.05952,0.95238c-0.02933,0.29617 0.02909,0.59702 0,0.83333c-0.02999,0.24358 -0.08918,0.4725 -0.11905,0.83333c-0.02455,0.2966 -0.05952,0.65476 -0.05952,0.95238c0,0.35714 0.00706,0.59674 -0.05952,0.89286c-0.05384,0.23944 -0.11905,0.47619 -0.11905,0.77381c0,0.17857 0,0.47619 0,0.71429c0,0.23809 0,0.41667 0,0.65476c0,0.17857 -0.03814,0.36022 0,0.59524c0.03015,0.1858 0.03043,0.41845 0.05952,0.65476c0.02999,0.24358 0.03606,0.53687 0.05952,0.77381c0.02991,0.30204 0.05952,0.47619 0.05952,0.65476c0,0.17857 0,0.29762 0,0.35714c0,0.05952 0,0.11905 0,0.17857c0,0.11905 0.05952,0.17857 0.05952,0.35714c0,0.17857 0,0.29762 0,0.41667c0,0.17857 0,0.35714 0,0.47619c0,0.11905 0.02894,0.16808 0.05952,0.29762c0.01367,0.05793 0,0.11905 0,0.23809c0,0.11905 0.05952,0.23809 0.05952,0.29762c0,0.05952 0.02731,0.1008 0.05952,0.17857c0.02278,0.05499 -0.01825,0.27031 0.05952,0.23809c0.05499,-0.02278 -0.11905,-0.23809 -0.11905,-0.29762c0,-0.11905 0,-0.17857 0,-0.23809c0,-0.05952 0,-0.11905 0,-0.17857c0,-0.05952 0,0 0,0.05952c0,0.05952 0.05952,0.17857 0.05952,0.23809c0,0.05952 -0.04556,0.12811 0,0.23809c0.03221,0.07777 0.04585,0.12064 0.05952,0.17857c0.03058,0.12954 0.05952,0.17857 0.05952,0.29762c0,0.05952 -0.04209,0.13648 0,0.17857c0.04209,0.04209 0.08683,0.04128 0.11905,0.11905c0.02278,0.05499 0.01744,0.07696 0.05952,0.11905c0.04209,0.04209 -0.04209,0.13648 0,0.17857c0.04209,0.04209 0.06858,0.01397 0.17857,0.05952c0.07777,0.03222 0.07696,0.07696 0.11905,0.11905c0.08418,0.08418 0.17857,0 0.41667,0c0.35714,0 0.58975,0.02954 0.83333,0.05952c0.35447,0.04364 0.59674,0.00706 0.89286,-0.05952c0.23944,-0.05384 0.48797,-0.15673 0.83333,-0.35714c0.37125,-0.21544 0.72782,-0.52291 0.95238,-0.77381c0.25419,-0.284 0.56807,-0.50013 0.83333,-0.77381c0.20714,-0.21371 0.40057,-0.54934 0.65476,-0.83333c0.22456,-0.2509 0.53571,-0.53571 0.77381,-0.83333c0.23809,-0.29762 0.53155,-0.65791 0.89286,-1.13095c0.41195,-0.53935 0.75449,-1.08482 1.13095,-1.60714c0.39683,-0.55057 0.84757,-1.06282 1.13095,-1.54762c0.37638,-0.64389 0.75331,-1.28134 1.13095,-1.84524c0.26703,-0.39874 0.48972,-0.76101 0.71429,-1.0119c0.25419,-0.284 0.33084,-0.5071 0.53571,-0.65476c0.10798,-0.07782 0.18016,-0.04585 0.2381,-0.05952c0.12954,-0.03058 0.18016,-0.04585 0.23809,-0.05952c0.12954,-0.03058 0.35165,-0.08906 0.59524,-0.11905c0.05908,-0.00727 0.1831,-0.02278 0.23809,0c0.15554,0.06443 0.32526,0.26574 0.53571,0.47619c0.21045,0.21045 0.35714,0.47619 0.47619,0.71428c0.11905,0.23809 0.29762,0.53572 0.41666,0.83333c0.11905,0.29762 0.2205,0.59611 0.2381,0.77381c0.02991,0.30204 0.11905,0.53571 0.11905,0.89286c0,0.29762 0.05952,0.53571 0.05952,0.77381c0,0.23809 0,0.41667 0,0.65476c0,0.29762 -0.07074,0.65141 -0.11905,0.83333c-0.0779,0.29335 -0.11905,0.59524 -0.23809,0.89286c-0.11905,0.29762 -0.29762,0.53572 -0.35714,0.77381c-0.05952,0.23809 -0.08887,0.54964 -0.23809,0.83333c-0.09991,0.18994 -0.24486,0.41027 -0.35714,0.53571c-0.25419,0.284 -0.29762,0.47619 -0.53571,0.71429c-0.17857,0.17857 -0.34013,0.36974 -0.47619,0.53571c-0.16011,0.1953 -0.26303,0.26303 -0.35714,0.35714c-0.09412,0.09412 -0.09049,0.19784 -0.17857,0.29762c-0.14203,0.16089 -0.38039,0.32809 -0.53571,0.47619c-0.25119,0.23951 -0.53085,0.42334 -0.77381,0.59524c-0.1752,0.12395 -0.49834,0.32054 -0.71429,0.47619c-0.27316,0.19688 -0.62845,0.42129 -0.95238,0.65476c-0.20487,0.14766 -0.52262,0.23668 -0.77381,0.47619c-0.15533,0.14811 -0.47619,0.41667 -0.65476,0.53572c-0.17857,0.11905 -0.35714,0.23809 -0.41667,0.29762c-0.11905,0.11905 -0.24668,0.23417 -0.29762,0.35714c-0.07203,0.1739 -0.2198,0.30869 -0.29762,0.41666c-0.04922,0.06829 -0.16904,0.23886 -0.17857,0.29762c-0.03015,0.1858 -0.17857,0.41667 -0.17857,0.65476c0,0.17857 0,0.41667 0,0.71429c0,0.29762 -0.05952,0.53571 -0.05952,0.83333c0,0.29762 -0.08921,0.77064 -0.11905,1.19048c-0.02954,0.41562 0,0.95238 0,1.36905c0,0.35714 0,0.77381 0,1.13095c0,0.35714 0.02966,0.71059 0.05952,1.07143c0.01964,0.23729 0.01743,0.4341 0.05952,0.47619c0.04209,0.04209 0.08683,0.04128 0.11905,0.11905c0.06834,0.16498 0,0.2381 0,0.29762c0,0.05952 0.05952,0.11905 0.05952,0.17857l0,0.11905l0.05952,0.05952" id="svg_13" stroke-width="null" stroke="#000000" fill="none"/>
  <path d="m3.06548,50.08649c0,-0.05952 0.0297,-0.11627 0.05952,-0.59524c0.01849,-0.29704 0.03843,-0.65551 0.05952,-0.95238c0.02984,-0.41983 0.02316,-0.71651 0.05952,-1.0119c0.02999,-0.24359 0.05952,-0.35714 0.05952,-0.47619c0,-0.11905 0.05952,-0.29762 0.05952,-0.59524c0,-0.17857 0,-0.41666 0,-0.59524l0,-0.11905l-0.05952,-0.05952" id="svg_14" stroke-opacity="null" stroke-width="null" stroke="null" fill="none"/>
  <path d="m3.30358,43.89602c0,-0.05952 0,-0.2381 -0.05952,-0.41667c-0.05952,-0.17857 -0.03421,-0.53661 -0.05952,-0.89286c-0.02984,-0.41984 -0.14871,-0.77012 -0.17857,-1.13095c-0.03437,-0.41525 -0.05952,-0.71429 -0.05952,-1.01191c0,-0.29762 0,-0.53571 0,-0.83333c0,-0.29762 0.02954,-0.58975 0.05952,-0.83334c0.02909,-0.23631 -0.01251,-0.42133 0.05952,-0.59524c0.10187,-0.24593 0.2602,-0.46111 0.41667,-0.71428c0.13995,-0.22644 0.24145,-0.49028 0.29762,-0.59524c0.10127,-0.18922 0.23418,-0.24669 0.35714,-0.29762c0.1739,-0.07203 0.23963,-0.1595 0.35714,-0.17857c0.1858,-0.03015 0.40996,-0.20099 0.77381,-0.29762c0.29334,-0.0779 0.64927,-0.14858 0.89286,-0.17857c0.29539,-0.03637 0.48003,-0.04767 0.77381,0c0.1858,0.03015 0.30215,0.09627 0.35714,0.11905c0.07777,0.03222 0.19918,0.16104 0.29762,0.29762c0.07783,0.10798 0.1133,0.29863 0.17857,0.65476c0.05472,0.29854 0.08918,0.71059 0.11905,1.07143c0.01964,0.23728 0.03814,0.47926 0,0.71428c-0.03015,0.1858 -0.08688,0.41985 -0.05952,0.53572c0.03058,0.12954 0.07407,0.17946 0.05952,0.29762c-0.02999,0.24358 -0.05952,0.47619 -0.11905,0.71428c-0.05952,0.2381 -0.03771,0.41801 -0.05952,0.59524c-0.02999,0.24359 -0.05952,0.29762 -0.11905,0.29762c-0.05952,0 -0.10527,-0.03648 -0.23809,-0.35714c-0.18784,-0.45348 -0.20801,-1.18652 -0.29762,-1.96429c-0.08883,-0.77099 -0.11905,-1.42857 -0.11905,-1.96429c0,-0.47619 0,-0.83333 0,-1.13095c0,-0.23809 -0.02954,-0.4707 -0.05952,-0.71429c-0.04364,-0.35447 0.02966,-0.71059 0.05952,-1.07143c0.03437,-0.41525 0.02954,-0.82784 0.05952,-1.07143c0.02182,-0.17723 0.02502,-0.36225 0.05952,-0.47619c0.06219,-0.20541 0.06535,-0.28717 0.17857,-0.35714c0.05063,-0.03129 0.27016,-0.15514 0.41667,-0.23809c0.21357,-0.12092 0.30554,-0.09342 0.53571,-0.17857c0.12483,-0.04618 0.35499,-0.06642 0.53571,-0.11905c0.23564,-0.06862 0.4657,-0.14799 0.59524,-0.17857c0.11586,-0.02735 0.29851,-0.04498 0.41667,-0.05952c0.24358,-0.02999 0.41667,-0.05952 0.47619,-0.05952c0.17857,0 0.2381,0 0.35714,0c0.05952,0 0.12696,0.0339 0.35714,0.11905c0.12483,0.04618 0.35714,0.11905 0.47619,0.2381c0.11905,0.11905 0.2806,0.25069 0.41667,0.41666c0.21348,0.2604 0.30917,0.46956 0.47619,0.77381c0.1281,0.23335 0.237,0.51857 0.29762,0.83333c0.04503,0.2338 0.05952,0.47619 0.05952,0.77381c0,0.29762 -0.05952,0.59524 -0.11905,0.95238c-0.05952,0.35714 -0.04702,0.59991 -0.11905,0.77381c-0.10187,0.24593 -0.11905,0.41667 -0.17857,0.59524c-0.05952,0.17857 0.02466,0.27296 -0.05952,0.35714c-0.04209,0.04209 -0.10537,0.00159 -0.11905,0.05952c-0.03058,0.12954 -0.04128,0.32983 -0.11905,0.29762c-0.05499,-0.02278 0.09175,-0.2907 0.17857,-0.77381c0.09534,-0.53051 0.13373,-1.25894 0.29762,-1.96428c0.14065,-0.60532 0.26243,-1.07317 0.29762,-1.42857c0.02991,-0.30204 0.19575,-0.52787 0.29762,-0.77381c0.07203,-0.1739 0.15949,-0.33162 0.29762,-0.59524c0.08736,-0.16673 0.14722,-0.49367 0.35714,-0.83333c0.15647,-0.25317 0.35714,-0.47619 0.53571,-0.65476c0.11905,-0.11905 0.2118,-0.269 0.41667,-0.41667c0.21595,-0.15565 0.44259,-0.35471 0.71429,-0.47619c0.27708,-0.12388 0.47284,-0.13026 0.65476,-0.17857c0.29334,-0.0779 0.41225,-0.08914 0.71428,-0.11905c0.29617,-0.02933 0.47619,0 0.59524,0c0.17857,0 0.22761,-0.02894 0.35714,-0.05952c0.05793,-0.01368 0.05952,0.05952 0.11905,0.11905c0.23809,0.2381 0.32533,0.46655 0.41667,0.77381c0.08648,0.29093 0.11905,0.71428 0.11905,1.13095c0,0.41667 0.08921,0.77064 0.11905,1.19048c0.02954,0.41562 0.02966,0.65107 0.05952,1.01191c0.01964,0.23728 0.05952,0.35714 0.05952,0.53571c0,0.17857 0.06811,0.35322 0.11905,0.47619c0.07203,0.1739 0.04045,0.35868 0.05952,0.47619c0.03015,0.1858 0.05952,0.41667 0.05952,0.59524c0,0.17857 -0.09175,0.33945 -0.17857,0.53571c-0.09929,0.22445 -0.11905,0.35714 -0.17857,0.47619c-0.05952,0.11905 -0.07349,0.18763 -0.11905,0.29762c-0.03222,0.07777 -0.17857,0.17857 -0.2381,0.23809l-0.11905,0.05952l-0.05952,0" id="svg_15" stroke-width="null" stroke="#000000" fill="none"/>
 </g>
</svg>